Coordinates
version=1
nRows=22
nColumns=24
inDegrees=yes

Units are S.I. units (second, meters, Newtons, ...)
Angles are in degrees.

endheader
time	pelvis_tilt	pelvis_list	pelvis_rotation	pelvis_tx	pelvis_ty	pelvis_tz	hip_flexion_r	hip_adduction_r	hip_rotation_r	knee_angle_r	ankle_angle_r	subtalar_angle_r	mtp_angle_r	hip_flexion_l	hip_adduction_l	hip_rotation_l	knee_angle_l	ankle_angle_l	subtalar_angle_l	mtp_angle_l	lumbar_extension	lumbar_bending	lumbar_rotation
      0.81233333	     -2.35534771	     -0.99793891	     -0.57545821	     -0.05366125	      1.03857372	      0.33579735	    -11.85445516	      3.68943238	     -3.05168202	     -9.69380443	     19.73315949	      2.44609522	      6.84723194	     27.36864568	     -1.29891489	     -2.52284008	     -3.07101597	      9.44211024	      9.32449361	      4.67056869	    -17.37393384	      5.17989068	      4.03271054
      0.81650000	     -2.31574461	     -0.96947543	     -0.64851235	     -0.04758724	      1.03769300	      0.33568218	    -12.07292725	      3.59104231	     -3.19062317	    -10.09950334	     19.93853238	      2.87852925	      6.94714773	     27.42165645	     -1.20974531	     -2.50528255	     -3.48016101	      9.41879541	      9.19061272	      4.69571739	    -17.38162279	      5.01828643	      4.07156044
      0.82066667	     -2.32131829	     -0.95992510	     -0.71246727	     -0.04148655	      1.03675650	      0.33556310	    -12.25037185	      3.52102304	     -3.24664255	    -10.48864144	     20.03043357	      3.11737897	      7.05499236	     27.54411750	     -1.13894514	     -2.46910668	     -3.99521077	      9.37606884	      9.04088701	      4.72863340	    -17.32942221	      4.89700277	      4.08364214
      0.82483333	     -2.28068998	     -0.92819725	     -0.78002876	     -0.03535437	      1.03593386	      0.33546686	    -12.47125643	      3.42433573	     -3.30044817	    -10.89220467	     20.10047391	      3.35542594	      7.17530999	     27.60823998	     -1.05081663	     -2.43478363	     -4.55661545	      9.30094872	      8.89490548	      4.76850795	    -17.34034254	      4.73609378	      4.09458768
      0.82900000	     -2.26514001	     -0.89295967	     -0.84512982	     -0.02916304	      1.03511013	      0.33536540	    -12.65377392	      3.32048592	     -3.38112542	    -11.32356784	     20.15478351	      3.63002198	      7.34067024	     27.70060691	     -0.96075564	     -2.38760593	     -5.18000293	      9.16147800	      8.71428153	      4.82579835	    -17.29819138	      4.57871648	      4.11272547
      0.83316667	     -2.23484519	     -0.86486194	     -0.90541658	     -0.02295585	      1.03435309	      0.33528962	    -12.86973398	      3.23653362	     -3.33817384	    -11.71333051	     20.08626724	      3.67013020	      7.37229666	     27.78571724	     -0.88154504	     -2.33577566	     -5.87043984	      9.00938588	      8.57328525	      4.83492554	    -17.29698591	      4.43047308	      4.10216096
      0.83733333	     -2.26492617	     -0.82521554	     -0.98340992	     -0.01671796	      1.03350637	      0.33518583	    -12.94777555	      3.11219826	     -3.47857956	    -12.26731926	     20.15194472	      4.07021247	      7.55827896	     27.92696444	     -0.79507315	     -2.23295386	     -6.59035282	      8.82412785	      8.33970728	      4.89838457	    -17.19424473	      4.23838593	      4.13154315
      0.84150000	     -2.24573274	     -0.76850759	     -1.05159506	     -0.01043251	      1.03280172	      0.33507544	    -13.09188447	      2.97255994	     -3.58418159	    -12.79113878	     20.12822027	      4.38013102	      7.81496795	     28.00595551	     -0.68927730	     -2.11939452	     -7.33133350	      8.56648780	      8.08290275	      4.98441422	    -17.15681612	      4.03925111	      4.13968245
      0.84566667	     -2.22109877	     -0.72601420	     -1.11042776	     -0.00412925	      1.03214151	      0.33496563	    -13.24694573	      2.85529569	     -3.62695097	    -13.29470155	     19.97744997	      4.50591109	     10.65764727	     28.07936776	     -0.59479209	     -1.94135887	     -8.10265019	      8.24511700	      7.71641903	      5.93653780	    -17.11955088	      3.86977411	      4.11020097
      0.84983333	     -2.23129434	     -0.67065968	     -1.18152159	      0.00222199	      1.03146615	      0.33486513	    -13.32927401	      2.71257801	     -3.71632582	    -13.88189128	     19.87335807	      4.77239557	     10.70957035	     28.20993216	     -0.50376305	     -1.87367642	     -8.95139147	      7.96924501	      7.56548012	      5.94052565	    -17.03761776	      3.65700418	      4.13682803
      0.85400000	     -2.22415627	     -0.61418390	     -1.24876706	      0.00857642	      1.03086117	      0.33473781	    -13.41258315	      2.56373028	     -3.81177953	    -14.50256933	     19.73833379	      5.04976465	     10.80371406	     28.31545651	     -0.40826202	     -1.75007289	     -9.80903122	      7.65833223	      7.31695368	      5.94824375	    -16.97754432	      3.45337040	      4.14050319
      0.85816667	     -2.21194548	     -0.55333265	     -1.30599030	      0.01496679	      1.03030534	      0.33457160	    -13.48833522	      2.40674022	     -3.92836657	    -15.15007972	     19.60415542	      5.33313920	     10.97845148	     28.41674281	     -0.30333039	     -1.60189396	    -10.69129325	      7.32101305	      7.00724914	      5.96047345	    -16.91135277	      3.25006989	      4.13757814
      0.86233333	     -2.20697933	     -0.48613692	     -1.36923194	      0.02137448	      1.02979141	      0.33439922	    -13.52862237	      2.23496675	     -4.04762474	    -15.85178398	     19.41466644	      5.62470319	     11.22165836	     28.52248059	     -0.19747431	     -1.45227007	    -11.58477330	      6.97495047	      6.69674790	      5.97128992	    -16.84291623	      3.03363035	      4.13569401
      0.86650000	     -2.17551599	     -0.39664491	     -1.44801405	      0.02781363	      1.02940104	      0.33425156	    -13.58276530	      2.03403900	     -4.12342967	    -16.57130087	     19.09120792	      5.79309537	     13.81687075	     28.56972658	     -0.07326160	     -1.26219375	    -12.43510823	      6.58965792	      6.25573912	      6.06568320	    -16.80782409	      2.77876890	      4.07682278
      0.87066667	     -2.16208162	     -0.34588486	     -1.49495867	      0.03424542	      1.02897784	      0.33401199	    -13.58922221	      1.87015361	     -4.27417946	    -17.35347574	     18.80875750	      6.11268564	     13.91014891	     28.69576668	      0.00997005	     -1.18531988	    -13.41566314	      6.30964586	      6.11363323	      6.05750095	    -16.74718168	      2.59209175	      4.11006102
      0.87483333	     -2.14122462	     -0.26688959	     -1.56131844	      0.04069797	      1.02864628	      0.33377842	    -13.56852078	      1.66319627	     -4.41780748	    -18.20197376	     18.50393839	      6.42951455	     14.10265579	     28.78014779	      0.11883879	     -1.06291761	    -14.34111504	      6.00077495	      5.82635129	      6.03561668	    -16.69878372	      2.36339018	      4.10606404
      0.87900000	     -2.11293684	     -0.18097269	     -1.62374066	      0.04718329	      1.02837768	      0.33352561	    -13.53510897	      1.44307693	     -4.56878022	    -19.08795563	     18.14420165	      6.73730784	     14.35519319	     28.85255415	      0.23248280	     -0.95760069	    -15.27018913	      5.70725273	      5.54701366	      6.00330149	    -16.64640652	      2.12499732	      4.09381524
      0.88316667	     -1.99477096	     -0.05967321	     -1.67254134	      0.05366957	      1.02833704	      0.33321699	    -13.57614410	      1.17225198	     -4.77710297	    -20.00569729	     17.67140709	      7.05050046	     16.28460702	     28.77970732	      0.40325516	     -0.74924768	    -16.09919633	      5.36738274	      5.11723369	      5.74960767	    -16.72608612	      1.84667192	      4.06310672
      0.88733333	     -2.03331286	     -0.00305055	     -1.75436425	      0.06017210	      1.02805756	      0.33296972	    -13.40592940	      0.97490572	     -4.85280955	    -21.00275897	     17.22708360	      7.28157283	     16.46186574	     28.94365532	      0.45850586	     -0.77685902	    -17.09385918	      5.22452558	      5.03728350	      5.72029530	    -16.58249631	      1.64732309	      4.05797306
      0.89150000	     -1.97546280	      0.10356505	     -1.82183406	      0.06667584	      1.02799774	      0.33265797	    -13.30546052	      0.70307058	     -5.03294753	    -22.06311298	     16.74925878	      7.63333856	     16.74565092	     28.95274894	      0.58527988	     -0.72795114	    -17.98020177	      5.03410597	      4.83181939	      5.66743871	    -16.56811321	      1.38921751	      4.05333765
      0.89566667	     -1.88793746	      0.23530075	     -1.89804891	      0.07319583	      1.02807580	      0.33235322	    -13.21594445	      0.40087928	     -5.16581929	    -23.14163856	     16.12270509	      7.81630753	     20.16661213	     28.88739540	      0.74303434	     -0.63513222	    -18.78768903	      4.85171917	      4.48679159	      5.01187134	    -16.58647337	      1.08442958	      4.00390460
      0.89983333	     -1.83213202	      0.31505574	     -1.95186737	      0.07968104	      1.02810067	      0.33199183	    -13.05208997	      0.14910471	     -5.33647037	    -24.29938958	     15.52935241	      8.14354267	     20.24799688	     28.89064406	      0.83858671	     -0.64330973	    -19.66430799	      4.77474530	      4.44614157	      4.99106508	    -16.57142884	      0.88124640	      4.00693886
